<svg width="512" height="512" xmlns="http://www.w3.org/2000/svg" class="svg-inline--fa fa-caret-circle-right fa-w-16 fa-2x">

 <g>
  <title>background</title>
  <rect fill="none" id="canvas_background" height="402" width="582" y="-1" x="-1"/>
 </g>
 <g>
  <title>Layer 1</title>
  <path transform="rotate(180 247.99999999999997,256) " id="svg_1" d="m0,256c0,137 111,248 248,248s248,-111 248,-248s-111,-248 -248,-248s-248,111 -248,248zm248,-216c118.7,0 216,96.1 216,216c0,118.7 -96.1,216 -216,216c-118.7,0 -216,-96.1 -216,-216c0,-118.7 96.1,-216 216,-216zm-32,120l96,96l-96,96l0,-192m-32,192c0,28.4 34.5,42.8 54.6,22.6l96,-96c12.5,-12.5 12.5,-32.8 0,-45.3l-96,-96c-20.1,-20.1 -54.6,-5.9 -54.6,22.6l0,192.1z" fill="#008ABF"/>
 </g>
</svg>